<mxfile host="app.diagrams.net" modified="2021-01-02T07:46:35.605Z" agent="5.0 (Windows NT 10.0; Win64; x64) AppleWebKit/537.36 (KHTML, like Gecko) Chrome/87.0.4280.88 Safari/537.36" etag="5yPt0Ofjib5yIsdABmAY" version="14.1.3" type="github">
  <diagram id="Z892y6Y0H2DAPk6TLEK0" name="Page-1">
    <mxGraphModel dx="2249" dy="1874" grid="1" gridSize="10" guides="1" tooltips="1" connect="1" arrows="1" fold="1" page="1" pageScale="1" pageWidth="827" pageHeight="1169" math="0" shadow="0">
      <root>
        <mxCell id="0" />
        <mxCell id="1" parent="0" />
        <mxCell id="Gutqsm9ajWu_Jxu1otiX-10" value="" style="shape=image;imageAspect=0;aspect=fixed;verticalLabelPosition=bottom;verticalAlign=top;image=data:image/png,iVBORw0KGgoAAAANSUhEUgAAAOkAAADYCAMAAAA5zzTZAAAAw1BMVEX///8RSo9fXF7j4uKSkJH29fWpqamnpaYRSo3Jycm2xNgXUZMARYtWe6zo7fQANoZDaJ3s7vMAP4igt9NAbqQARIySrcxqha++zeBQb6IqX53///wAQYoqWZcRS4wQSZAAPYmGoMIAOIScmptTUVJ4jrWpu9FQd6liiLXK1uWMnbxtkLvW4Ozv7+/Q3OkZUY+OpsQmX56grsjByNo9Yp26w9iUqMh/mLxjibRJc6fAztsvZZx1i7MAMoRbeKWsu9a6ubn7fT6oAAAL10lEQVR4nO2di3biOBKG8cx6V2sLAyYCArJlmAmJG5rQCRty6UnP+z/VVknGWFyCGzjpOFP/6QsJtqVPKpVKwmVqNRKJRCKRSCQSiUQikUgkEolEIn0+uZ9L+0G//vGvz6Q/vu4l/f3P/34m/fn7ftLfTjH9D6ffypEO3qEqZxdUerCueDnSSoJuqGSfGthgNvOqoXQWHENqejRoX702F34ldLto1q/arWP6dOA+NJnkTjWkHC4EdxYdtzDwSo7Tnh8quAJjvxqipJjDmOKJ3xvkVlmOdCwFNFQcO7waEtzgcjn+Oev9AZjQRkJG1/Vq6DoS0ljgOOvSUqSeD5wOT25606Ayur9JBIAK3yvfp7OIK8V4lO498mMq7XPFYh7NzI+HSd26BItX3a0J6mMLLDZ4BB8ay65ZxRwmTSUO7nrFQGvIGtQ5DFVpjPEw6Y1Qjop671K5c6sXAam40a8PkIINhHAwf3yvup1ZXQ6+VOqXB/t0NoKQQVaySwd66DGnoX3SQdJ2qJgTv1Pdzi+MH8I2vipByhi/eKd6nV8X/GdInWqTKlmW1Kk2qVO+T6tOyog0F5FWSkRqiUgrJSK1RKSVEpFaItJKiUgtEWmlRKSWiLRSIlJLRFopEaklIq2UiNQSkVZKRGqJSCslIrVEpJUSkVoi0kqJSC0R6ZvalUP0K/OKjiHF+qY9S2mw465f13v4AnrYvKkytc90s0tuN4Nrbi8vDRPoK053v3lkn7aubqOi+s3m6zDA2q7rO770lZQy4dFrWgRxL6xTm81uW6edDYq5Z1reognqliZt60rNazuN51jSrlCWBOd8NC+cM5gLoTBZBdNVVLtQtPuNm3Pw7kydjSL9tjlno9xxohQXl6VJH6CGSgzPRzpA0o0sqNhhgLtcp+u2laYMpYB3uN9bl+72+SppB//gcZwvWztY2xKaipcn7UhsujOS1nSfYl0Vzzon1hVXLE+/Ca6hRxl/mt91GSaeXK/bICOF05Q+B3EdvtxR7ljCuT/Rpx1Mz9KkO3SC9UJlo2/9b/1+32mMAJzFjrheuY8Uqh+L+gwOXQIyS1yrT5licC6c2EhklqTU3i4X+hTe2CTd78A7oaNJB7uOPJ40Zk4ydltG02Ujxn4VqUlrrd0nUP1E5+IEC2iT0doBAymg+9m5vYkQOJadcDtRfTfpJmvmBeGfTuJs9Wl+7AnWq+JwvJ4fPLRWJu+yy98neIP/0JACWWKRgs3mGUm14AaGeKzEZIthF6nhGmy6af3jHlJz7EnjNFlnxdVaFzp5YZ5dPY1wDDrP8NM8BkNP1rOi20d7XZPCmOaYRBa1ypGuzpo939/N7+6f16m0OWmQ/u9hfD+10k5PtN51ya1Hgbk3D6t6QFOAR1pM3Tkwx7xZ9EjgjAp9CvbA0Svhbw6TrorzupFMpAxHIuqOXZt0XGdJKEf9q2Ja2inWy6w+1VlG4VzbCvwZ++hoeLPr6L4eFyKHPvrb2wJpLVI7neZ+UnfocOPuMZc2ngTaQjWpM1nGWJWYcREVKng8KXIVLjTz8eJJXv/Wq8B6MD1pimHB3ehZRjleIR//EQwgFt1Nn7RvnA7cpdQTG7YiTmKhiVk0aRwznN90ji2Xa49+AilDUvN4j1Yw8zkW0J/lLmoaAbmeQfhtp3g16FOoRdF6oYo45cMUVdJ605GDRuAvFhEzk3MrJ4VqcLZo3godz4g8Cj7BeqHhuvMvw+Fwvqw/cWxdxwRJprpT7aLwt03tdwfWfGqTekCqeHO2Ue5e0ieOjdj1ZrPeMEK6xrRAyi/b6dTrwuQANbo6nVSTQQQfwl+BHQoNeJm7QfcO5hY0Xghy2nZX7SB91gNssZnXupe074/CMCtsyfNxZMapeNXYrQnGhmqx6tRTYiSoRmxiV2xJxcN+biruxEEcfJfxvn21HaQ9jDP4SylSHKhBMPsxyWboNqbnG/9g+hR8nZl0G1A/x1/5klOsF/0K4mKCfBz7i04tD1ieJLyn0C1g9FNH1zzvtdw3SZ1m6T5dyw0mUIITrkn5a6tmRtCNhOLll8yiTphPoXK+D0tQ3a2sXlxvLxNsTqfebnLdsQ81jyUj/tLbR9pAj1TSeldDIZhOvcnLSMZ53GlIr1aH/dBppN8zj35SjCSXnjceRgxXJf27Vu50Uh87m08CeKXngsi7wjmnEewhHScMpr+Lzd2CtyKH3l29L0cSA0sMwdakIp+WZwk66G7rDKTGZlIzItl6caqdBF9gEe2RXoouIizUDNgdpEuNdL25j7KfdAYRktBjgwssvGC9KidtYdniPKRmtD/DwisGP7taArdesaWhmbGPhyN4BwOa2EnmO0nhoCd8HAb/vlnu/vk0ErjA5eEofHrymT1Oh3qfBq76FV3SWUlrbaEDs788U+90wWHsKIPhXqHvitFx+cEuUtzBwH6JVXFzZi+pjjXR18EKt9uZGt9rkV6tRrL2c+ckHWThPMQsZqClC5xHo8x3TJ84i/Vae7jP986hZVTsbz0mYl+fjkcM9zNMoHEX29YrXlejCCOvGHxv7fRV24oUHw0BLoVlfm7WRJR8nZZGZs/Iz7zzFulsod3W01a5+0gnuJDi2QXumN2nLHrO2F4wNnfuzkeqy+A4cSpfj00YpzG63qyIHngjjLqdyzQjhaBD5aTuuIk1YqOii3qb9AYL56bhzOgokMJ4N/aahgyGRP5UhqNJcS9ovXKpXaCLAIvS9jvk2itqZzx99JV5whATTseQomtmkw5o2L2JdPSxMwO9jXtMvN+x5OHSB88w+8AdPZ1npCHOAUpcubqBuSruLB69CyqYtT4NdEQYJ9rFT/s6OpLiot5vYIfFeh5SKsGWwD0HHGchSuidN2iFRbC9FwakuDIJixqBh36QOIeK79MgvZbo7ZjemtEDE9tAisnkSaKbYzLfLDiSFH0QnJiTDsD/Mt012kLHUkeJsEg2MRJUS/cjR1tyv+EiJ8bHLOk1FtgYgKbmMpbGItsjLQgXJ0Golw6S+QlnQkcp+ukbHYlxOKwfHWEKZsn6A4DjrHcQdLHmSWEnodUFOqyy/umOF3e+BV/e+eiGxI+a7lO91avbwizUk5vZrt1NPXttkEoM9oY4BB3dVuGr9mf6ORMd+LXjP0RCr8+hiORpHYwcOU6DbghLtcbaegfgfyW0JB91dMDQ6+MWsNKcYeS5tVRJFWobc79JzgUcC3/hFJkkL8+tHaVCiQl+CCIsJRhftIaJXvg7fFQPliEc8xfaRGfEhWTT3iJBq4HA4iow8+/RpOBeH+r1m/q19SnaD/OQqUlWa6+Oj4bzb6O62XFoTWIzj7gTPHelScfLTtja2az18ICbjYdYmT259DHCy18D4FT/uqOLxOOhG9sv+Gbd+uDrSNIDytZusNqYFmLZ3g6ns3ViOentm+l0/ymBfrP4Hn0mbolIKyUitUSklRKRWiLSSolILRFppUSkloi0UiJSS0RaKRGpJSKtlIjUEpFWSkRqiUgrJSK1RKSVEpFaItJKiUgtEWmlRKSWiLRS+hnSxImRtKJf9oqkpb9Jh6lK96n6J3w70uBnx+lW5laFhPfEJ+VIvQRvUH3jC9Y/tFyRJxAdJA0aLI5FVb+ZzsN7x0f6fs3D36uItx/z6/ep29l1jYkJvn55mHSID4bwx3sP+4haTYk/fMzdNIlgh0kDH/N7mmmlZlRT1xSTJrkflP1G5rl0YiUwGXrr9uoPLLxXvpk9mEDrbVJ9O/v0AtM6+O2up8F8ZC1vcZDmWZ+H+3RQSxc6PUTyiRe0qqHAe+RcJ5osVgn3B0iNuXp9YfJCklGjCvqrMQoxoz2GmMdbjbkS4xSUvoQmn6ka3xHPdB4LVDcspGaXIoWxuhTCWWX8f3iZZ2o5Qi2n6xmjBGnmsW8ws+fXfsl9WQmFVZV1K7W1nPWa9Oh29/WyWQ1dvk7aGxlWJUlXav3ar7gvLU1pT/8/SVohDaz/PjNppn8Oaa43Sf/zmfQGqfv3vz+T/q7qvgmJRCKRSCQSiUQikUgkEolEIpFIJBKJRCKRSKSd+j/23r0uOEz6FQAAAABJRU5ErkJggg==;imageBorder=#660000;" vertex="1" parent="1">
          <mxGeometry x="719.3199999999999" y="-125" width="135.36" height="125.49" as="geometry" />
        </mxCell>
        <mxCell id="r4Pji1q6BE0blm9gypJN-11" value="" style="group" parent="1" vertex="1" connectable="0">
          <mxGeometry x="20" y="218" width="141" height="130" as="geometry" />
        </mxCell>
        <mxCell id="r4Pji1q6BE0blm9gypJN-2" value="" style="aspect=fixed;perimeter=ellipsePerimeter;html=1;align=center;shadow=0;dashed=0;spacingTop=3;image;image=img/lib/active_directory/database_server.svg;" parent="r4Pji1q6BE0blm9gypJN-11" vertex="1">
          <mxGeometry width="53.300000000000004" height="65" as="geometry" />
        </mxCell>
        <mxCell id="r4Pji1q6BE0blm9gypJN-3" value="" style="aspect=fixed;perimeter=ellipsePerimeter;html=1;align=center;shadow=0;dashed=0;spacingTop=3;image;image=img/lib/active_directory/database_server.svg;" parent="r4Pji1q6BE0blm9gypJN-11" vertex="1">
          <mxGeometry width="53.300000000000004" height="65" as="geometry" />
        </mxCell>
        <mxCell id="r4Pji1q6BE0blm9gypJN-4" value="" style="aspect=fixed;perimeter=ellipsePerimeter;html=1;align=center;shadow=0;dashed=0;spacingTop=3;image;image=img/lib/active_directory/database_server.svg;" parent="r4Pji1q6BE0blm9gypJN-11" vertex="1">
          <mxGeometry width="53.300000000000004" height="65" as="geometry" />
        </mxCell>
        <mxCell id="r4Pji1q6BE0blm9gypJN-5" value="" style="aspect=fixed;perimeter=ellipsePerimeter;html=1;align=center;shadow=0;dashed=0;spacingTop=3;image;image=img/lib/active_directory/database_server.svg;" parent="r4Pji1q6BE0blm9gypJN-11" vertex="1">
          <mxGeometry width="53.300000000000004" height="65" as="geometry" />
        </mxCell>
        <mxCell id="r4Pji1q6BE0blm9gypJN-6" value="" style="aspect=fixed;perimeter=ellipsePerimeter;html=1;align=center;shadow=0;dashed=0;spacingTop=3;image;image=img/lib/active_directory/database_server.svg;" parent="r4Pji1q6BE0blm9gypJN-11" vertex="1">
          <mxGeometry x="15.494505494505495" y="13" width="53.300000000000004" height="65" as="geometry" />
        </mxCell>
        <mxCell id="r4Pji1q6BE0blm9gypJN-7" value="" style="aspect=fixed;perimeter=ellipsePerimeter;html=1;align=center;shadow=0;dashed=0;spacingTop=3;image;image=img/lib/active_directory/database_server.svg;" parent="r4Pji1q6BE0blm9gypJN-11" vertex="1">
          <mxGeometry x="30.98901098901099" y="26" width="53.300000000000004" height="65" as="geometry" />
        </mxCell>
        <mxCell id="r4Pji1q6BE0blm9gypJN-8" value="" style="aspect=fixed;perimeter=ellipsePerimeter;html=1;align=center;shadow=0;dashed=0;spacingTop=3;image;image=img/lib/active_directory/database_server.svg;" parent="r4Pji1q6BE0blm9gypJN-11" vertex="1">
          <mxGeometry x="46.48351648351648" y="39" width="53.300000000000004" height="65" as="geometry" />
        </mxCell>
        <mxCell id="r4Pji1q6BE0blm9gypJN-9" value="" style="aspect=fixed;perimeter=ellipsePerimeter;html=1;align=center;shadow=0;dashed=0;spacingTop=3;image;image=img/lib/active_directory/database_server.svg;" parent="r4Pji1q6BE0blm9gypJN-11" vertex="1">
          <mxGeometry x="61.97802197802198" y="52" width="53.300000000000004" height="65" as="geometry" />
        </mxCell>
        <mxCell id="r4Pji1q6BE0blm9gypJN-10" value="" style="aspect=fixed;perimeter=ellipsePerimeter;html=1;align=center;shadow=0;dashed=0;spacingTop=3;image;image=img/lib/active_directory/database_server.svg;" parent="r4Pji1q6BE0blm9gypJN-11" vertex="1">
          <mxGeometry x="77.47252747252747" y="65" width="53.300000000000004" height="65" as="geometry" />
        </mxCell>
        <mxCell id="r4Pji1q6BE0blm9gypJN-14" value="&lt;font style=&quot;font-size: 24px&quot; color=&quot;#007fff&quot;&gt;Sources&lt;/font&gt;" style="text;html=1;strokeColor=none;fillColor=none;align=center;verticalAlign=middle;whiteSpace=wrap;rounded=0;" parent="1" vertex="1">
          <mxGeometry x="61" y="50" width="40" height="20" as="geometry" />
        </mxCell>
        <mxCell id="r4Pji1q6BE0blm9gypJN-15" value="" style="aspect=fixed;perimeter=ellipsePerimeter;html=1;align=center;shadow=0;dashed=0;spacingTop=3;image;image=img/lib/active_directory/documents.svg;" parent="1" vertex="1">
          <mxGeometry x="40" y="138" width="33" height="50" as="geometry" />
        </mxCell>
        <mxCell id="r4Pji1q6BE0blm9gypJN-16" value="" style="aspect=fixed;perimeter=ellipsePerimeter;html=1;align=center;shadow=0;dashed=0;spacingTop=3;image;image=img/lib/active_directory/sql_server.svg;" parent="1" vertex="1">
          <mxGeometry x="40" y="358" width="38.5" height="50" as="geometry" />
        </mxCell>
        <mxCell id="r4Pji1q6BE0blm9gypJN-17" value="" style="aspect=fixed;perimeter=ellipsePerimeter;html=1;align=center;shadow=0;dashed=0;spacingTop=3;image;image=img/lib/active_directory/sql_server.svg;" parent="1" vertex="1">
          <mxGeometry x="50" y="368" width="38.5" height="50" as="geometry" />
        </mxCell>
        <mxCell id="r4Pji1q6BE0blm9gypJN-18" value="" style="aspect=fixed;perimeter=ellipsePerimeter;html=1;align=center;shadow=0;dashed=0;spacingTop=3;image;image=img/lib/active_directory/sql_server.svg;" parent="1" vertex="1">
          <mxGeometry x="60" y="378" width="38.5" height="50" as="geometry" />
        </mxCell>
        <mxCell id="r4Pji1q6BE0blm9gypJN-19" value="" style="aspect=fixed;perimeter=ellipsePerimeter;html=1;align=center;shadow=0;dashed=0;spacingTop=3;image;image=img/lib/active_directory/documents.svg;" parent="1" vertex="1">
          <mxGeometry x="50" y="148" width="33" height="50" as="geometry" />
        </mxCell>
        <mxCell id="r4Pji1q6BE0blm9gypJN-20" value="" style="aspect=fixed;perimeter=ellipsePerimeter;html=1;align=center;shadow=0;dashed=0;spacingTop=3;image;image=img/lib/active_directory/documents.svg;" parent="1" vertex="1">
          <mxGeometry x="60" y="158" width="33" height="50" as="geometry" />
        </mxCell>
        <mxCell id="r4Pji1q6BE0blm9gypJN-21" value="" style="aspect=fixed;perimeter=ellipsePerimeter;html=1;align=center;shadow=0;dashed=0;spacingTop=3;image;image=img/lib/active_directory/documents.svg;" parent="1" vertex="1">
          <mxGeometry x="70" y="168" width="33" height="50" as="geometry" />
        </mxCell>
        <mxCell id="r4Pji1q6BE0blm9gypJN-22" value="" style="aspect=fixed;perimeter=ellipsePerimeter;html=1;align=center;shadow=0;dashed=0;spacingTop=3;image;image=img/lib/active_directory/active_directory.svg;" parent="1" vertex="1">
          <mxGeometry x="48.5" y="478" width="50" height="42.5" as="geometry" />
        </mxCell>
        <mxCell id="r4Pji1q6BE0blm9gypJN-23" value="" style="aspect=fixed;perimeter=ellipsePerimeter;html=1;align=center;shadow=0;dashed=0;spacingTop=3;image;image=img/lib/active_directory/input_output_filter.svg;" parent="1" vertex="1">
          <mxGeometry x="200" y="268" width="33.5" height="50" as="geometry" />
        </mxCell>
        <mxCell id="r4Pji1q6BE0blm9gypJN-24" value="" style="aspect=fixed;perimeter=ellipsePerimeter;html=1;align=center;shadow=0;dashed=0;spacingTop=3;image;image=img/lib/active_directory/input_output_filter.svg;" parent="1" vertex="1">
          <mxGeometry x="200" y="358" width="33.5" height="50" as="geometry" />
        </mxCell>
        <mxCell id="r4Pji1q6BE0blm9gypJN-25" value="" style="aspect=fixed;perimeter=ellipsePerimeter;html=1;align=center;shadow=0;dashed=0;spacingTop=3;image;image=img/lib/active_directory/input_output_filter.svg;" parent="1" vertex="1">
          <mxGeometry x="200" y="458" width="33.5" height="50" as="geometry" />
        </mxCell>
        <mxCell id="r4Pji1q6BE0blm9gypJN-26" value="" style="aspect=fixed;perimeter=ellipsePerimeter;html=1;align=center;shadow=0;dashed=0;spacingTop=3;image;image=img/lib/active_directory/input_output_filter.svg;" parent="1" vertex="1">
          <mxGeometry x="200" y="148" width="33.5" height="50" as="geometry" />
        </mxCell>
        <mxCell id="r4Pji1q6BE0blm9gypJN-28" value="&lt;font style=&quot;font-size: 24px&quot; color=&quot;#007fff&quot;&gt;Integration&lt;/font&gt;" style="text;html=1;strokeColor=none;fillColor=none;align=center;verticalAlign=middle;whiteSpace=wrap;rounded=0;" parent="1" vertex="1">
          <mxGeometry x="218" y="50" width="40" height="20" as="geometry" />
        </mxCell>
        <mxCell id="r4Pji1q6BE0blm9gypJN-30" value="&lt;font color=&quot;#007fff&quot;&gt;&lt;span style=&quot;font-size: 24px&quot;&gt;Data Interfaces&lt;/span&gt;&lt;/font&gt;" style="text;html=1;strokeColor=none;fillColor=none;align=center;verticalAlign=middle;whiteSpace=wrap;rounded=0;" parent="1" vertex="1">
          <mxGeometry x="-5" y="-190" width="820" height="20" as="geometry" />
        </mxCell>
        <mxCell id="r4Pji1q6BE0blm9gypJN-31" value="&lt;font style=&quot;font-size: 48px&quot; color=&quot;#007fff&quot;&gt;Data&lt;/font&gt;" style="text;html=1;strokeColor=none;fillColor=none;align=center;verticalAlign=middle;whiteSpace=wrap;rounded=0;" parent="1" vertex="1">
          <mxGeometry x="-52.5" y="-60" width="238" height="20" as="geometry" />
        </mxCell>
        <mxCell id="r4Pji1q6BE0blm9gypJN-39" value="" style="aspect=fixed;perimeter=ellipsePerimeter;html=1;align=center;shadow=0;dashed=0;spacingTop=3;image;image=img/lib/active_directory/cluster_server.svg;" parent="1" vertex="1">
          <mxGeometry x="44.25" y="570" width="50" height="50" as="geometry" />
        </mxCell>
        <mxCell id="Gutqsm9ajWu_Jxu1otiX-1" value="" style="group;rotation=90;" vertex="1" connectable="0" parent="1">
          <mxGeometry x="330" y="230" width="150" height="180" as="geometry" />
        </mxCell>
        <mxCell id="r4Pji1q6BE0blm9gypJN-33" value="" style="aspect=fixed;perimeter=ellipsePerimeter;html=1;align=center;shadow=0;dashed=0;spacingTop=3;image;image=img/lib/active_directory/sql_server.svg;" parent="Gutqsm9ajWu_Jxu1otiX-1" vertex="1">
          <mxGeometry width="64.60169491525424" height="83.89830508474576" as="geometry" />
        </mxCell>
        <mxCell id="r4Pji1q6BE0blm9gypJN-34" value="" style="aspect=fixed;perimeter=ellipsePerimeter;html=1;align=center;shadow=0;dashed=0;spacingTop=3;image;image=img/lib/active_directory/sql_server.svg;" parent="Gutqsm9ajWu_Jxu1otiX-1" vertex="1">
          <mxGeometry x="16.949152542372882" y="18" width="64.60169491525424" height="83.89830508474576" as="geometry" />
        </mxCell>
        <mxCell id="r4Pji1q6BE0blm9gypJN-35" value="" style="aspect=fixed;perimeter=ellipsePerimeter;html=1;align=center;shadow=0;dashed=0;spacingTop=3;image;image=img/lib/active_directory/sql_server.svg;" parent="Gutqsm9ajWu_Jxu1otiX-1" vertex="1">
          <mxGeometry x="33.898305084745765" y="36" width="64.60169491525424" height="83.89830508474576" as="geometry" />
        </mxCell>
        <mxCell id="r4Pji1q6BE0blm9gypJN-36" value="" style="aspect=fixed;perimeter=ellipsePerimeter;html=1;align=center;shadow=0;dashed=0;spacingTop=3;image;image=img/lib/active_directory/sql_server.svg;" parent="Gutqsm9ajWu_Jxu1otiX-1" vertex="1">
          <mxGeometry x="50.84745762711865" y="54" width="64.60169491525424" height="83.89830508474576" as="geometry" />
        </mxCell>
        <mxCell id="r4Pji1q6BE0blm9gypJN-37" value="" style="aspect=fixed;perimeter=ellipsePerimeter;html=1;align=center;shadow=0;dashed=0;spacingTop=3;image;image=img/lib/active_directory/sql_server.svg;" parent="Gutqsm9ajWu_Jxu1otiX-1" vertex="1">
          <mxGeometry x="67.79661016949153" y="72" width="64.60169491525424" height="83.89830508474576" as="geometry" />
        </mxCell>
        <mxCell id="r4Pji1q6BE0blm9gypJN-38" value="" style="aspect=fixed;perimeter=ellipsePerimeter;html=1;align=center;shadow=0;dashed=0;spacingTop=3;image;image=img/lib/active_directory/sql_server.svg;" parent="Gutqsm9ajWu_Jxu1otiX-1" vertex="1">
          <mxGeometry x="84.7457627118644" y="90" width="64.60169491525424" height="83.89830508474576" as="geometry" />
        </mxCell>
        <mxCell id="Gutqsm9ajWu_Jxu1otiX-24" value="" style="edgeStyle=elbowEdgeStyle;elbow=horizontal;endArrow=classic;html=1;fontColor=#007FE0;entryX=-0.025;entryY=0.566;entryDx=0;entryDy=0;entryPerimeter=0;strokeColor=#660000;" edge="1" parent="Gutqsm9ajWu_Jxu1otiX-1" target="Gutqsm9ajWu_Jxu1otiX-10">
          <mxGeometry width="50" height="50" relative="1" as="geometry">
            <mxPoint x="81.55000000000001" y="36" as="sourcePoint" />
            <mxPoint x="131.55" y="-14" as="targetPoint" />
            <Array as="points">
              <mxPoint x="150" y="-120" />
            </Array>
          </mxGeometry>
        </mxCell>
        <mxCell id="Gutqsm9ajWu_Jxu1otiX-11" value="" style="shape=image;imageAspect=0;aspect=fixed;verticalLabelPosition=bottom;verticalAlign=top;image=data:image/png,iVBORw0KGgoAAAANSUhEUgAAAOEAAADhCAMAAAAJbSJIAAAB/lBMVEX///8dYr0AAAAeYLz0+/4AtfADr+wFqukGpuYcZL4Csu0Ho+QAtvAEq+oIoeMAU7fL2u8KnOAPitULmN4Rh9MYccZbW1tgYGANktoSg9Fov+sZaMBjY2P5+fnl5eUVecvZ2dnOzs6IiIhUVFSrq6ubm5vx8fEZb8UUfc22trZ4eHjBwcFra2uUlJSLi4uAgIBxcXGvr69JSUkQEBCf0O/K4vQ/j9Ta5/UzfssAW7xli8wrKys3Nzfq9vyr1O9mr+NhnNehxOe70OtlistPx/Nr0PVcuuptxO274PXY7/qV0fFCsOeKye1zvOmRyOxNqOGHu+Vrqt96rN2YvOSryelIiM9tntc/gsx8o9gAULm+0uuhuuCRrtzU3/E3ccL9/erw7Ke41JmOxo+k0J/N5+X62JXhxQCFuCderFAAjcJHkLT2yXb6uwDh1gCixSR3tj8ioLM0dbNHUZjxuaLrhwCJv2peeLdWRZPlcSr16gDI0yGUwVBPJ4K9qcnzxsDmZADwlgCGXJjupZ/hQwD4xwAApKFeO4vq0wZErFgAoH3vkAY1QIxkUY344OHOxQaqwwUjlyYDjlkAgX8eW5gEKniIkrDkf38FcnwAZXwAVXoAGXDSUknMTQDruAClnw85iygAdTQAO2q1fwBoixsAagkWXkDQf1mxcihkeUKKqJAVCvsIAAAOlUlEQVR4nO2a+X/b5BnA3zguraG0TmxLdi3JknXYsnyniWMnbtyUhYTSM0dLrh0wClsLg8HYYAM2oFxjwNjGbhg72P7LPa/k45UtO3Ei2wmf9/tDK0uvpPf7vs/zvJJahCgUCoVCoVAoFAqFQqFQKBQKhUKhUCgUCoVCoVAoFAqFQqFQKBQKhXIM8R5B3DV85MTpEydOnz594vRR2XjgEXcVHzlxxHjwW676geEDDx4pHnBb8KgZui+Izj1wlHjYfUF07uFRWxGcGoAgWjr58JHh1KMDEERLp04eFQYjeIQMBySIlh46dTQ4MyBBMDwaDEwQLZ1pu1ODb4ogWpo402JiYuLMqVMnL5+EoJnAPzqZIOl6wOF4TyYGJ0gYTgQClx9fXqlW4em+Wl2ZfuzcyUCgvZcTS+dakKMzcflcG0uXT54JdF7BicC5wQmCYZ3wQ4+ttB+sLl85Ew6Qs3LNdpyYuMAFh4t7V6YvLLVdwYGBCqIF6/aBMxec31m8y0uBVg/D520HH28dCZx3PN26Qm/HwQrWDcNL1e5NVpoigbC92UpXdzvTl3s4Bq64Y9KNBUiVQLj3TS6EAxbhy21HrjWOBHoaInS12bCd8BWX3+nbwYaTvQWrE03D5bZD5/driJYnuwguHa7/e7MQDkwu9G5ypdG58ET7cFcDDcXJPQzRheBoBMEwHOiRg8BKuIHDXC9MNo7tZdhqSjLgHDTvGw5e7d3iWrNnk9MdB5f3b7jS6Tc56BzELEwG26YQFvsVYtd0pNmha5398Qbqx4J7GnZO4uTCEAThtvZF/GogGIlEgpMTVy6Ymk2FcDjiJHE96GBYWsBcbZvy5aBdMLhH/rvEQoQMUu9EZLJOMBK8Bk8BV5s7OibbZCVpHbTpT0eCQCQStj3oVMOTJEMSRDeSZC8uJG19CAauhvfqUcDRcNJhL7oWHIEgGJJrXMlmiCeytZ1sXwwt6pPsbDg5Sc77AnG1yFByEGM3ROdD5DjbZZ0vUA/TLoa2CLneGr/IsGYQDGP2l4LpmZiZRB1ErrcaeclzrpntkzbDpNNZ6Gpr9/AEwfBi257lG8lkpNMyQlTG0gwRYhfMfifJy7QMk46GwxREteSNjn2l6zMRkLQzQzS4GCu1flTx8hJpM2ycZRu/qzFrZ3JoOYipJZMOe73TFydjMVLQ1tVabJX4dSPWfny6eSo5FOi6tTt2Y5iCYBhacz4yfTNJOhJdXUkmyRmd7m4YIoMUqpol6F7v9wPMoeNKjvFejDS6auvWYiwSI754eGeSHYZJTCxmEzTbDV0QG/a4Z/W61ddkaJM8J5aMkROPG9kNgzNAbZUMUbzYJnvebEBAb5P2WLIzHTEdyXn2YqEa0aYUgmvYSrLjP8ev4vOGm4MYbJgM9RjYarJ9DDajeC7Ins7E2gwdCcZ63mhQmIaxULDz1a9BNRKLJch4uxmCKE2Qi/7FRGxvw4uhkQiCYZ2bpW5NNkMxsnR6k7i5rbPefRhWQ7GRCLYMQ90dN3xk9/0Js/0sGaa10F6G3plQaPg5iKmFGoqxRKi25tgHv49cT65bhgk/sW8tkeht6K0lEhsjESQNYR6jidpi5+pYrZE/Zq0zojeJnd5YtKdhaR0E3elw30B82UhEEzNr7ZLk4FdrsShm9ia59+ZYD8PqaiKRqLnX5/6oJULtJKKzq70CqrqzuLZZsrfwdzX0llZno6GRzaCjIeCr9Zkz3tnOFd/rre6sba8noqFQdEQ5iLEME+2eY10ex7tyk3zb2InNYkIJny+KrxytudjjfjENE+u1MbtjdHXvU22UyBP8PnPYmhcbXYiiumHUjxbXreFupGLX9b8LXvKhyDJsXmukgqgWTSSi67Dh3awlonV8vWv/nvh9iRajzEEMNvTVF+/S5u2Z9Vu31te3+53BNvxjLUHfiAVRJZrwVdy+KGE4NtoQRabh+I7bF20aRn01t6/dN5W+OrG4VWq+2cJq1+3BwD/eSOiRzyAY+sp9TGGl7Jut3N5e3Vrd3ljfHXti0blZw3Bs1DmIqYz3kYUlH0yLb6yMGYPtsdvO7eqG4/0+GQ2ESnm71+Eq+Y6EtspRG76E82c6f9kSdK+bh6AyNr671fUf8v27tnWjMm43jJY3nU8rmyHqclcPSGXM5yvvbpd4h2Ol22VbCJdwjNooO4epv+zzjR+FHMRgQ+hp+dK2394j7+bGeLlsKyVrZV87u84fBcpHRxACz+rqePns+K3bW4v+Uqm0s7m2XSmfxT4JMibHOgR9uN444CsfkRBFLUPc2/Fyi/FOG5+DYRfKrj8mHZyKk8ohGStvOKX1iBiEYfnI5CCmMj7mNuVKS3Bnzd/j5kPBfUMiB/27G1u3o1sj1EPuG47bBHf8m/7SpdEqum1I5uCuf2d3bWO71OXZbkhUyuNuQuZgyYf8FbRzCVW6vIIMB3cNz5LroH8X+X27szvo9kjD1FVD+0JfHUf+De8sjyrOz+dD4pKLhmSImtde3Kmgra3S7kjXfxcN2wVRaXexhPjFWyNNQ3TribMu8US7IChe2t24NTviNX/H7xpOl6/6D/nplUKhUNyFNxl1LwYArwmioStqJhsHshnFELVR98ktwE0CtWzOIoXJ59Mcl1KFUffNBTRJVzNxE0suD6TTefMvji2Mun+HghckJZPFmFGpGJIomIiipGSxZTrNGKPu5UHh8dypGYwKaoLWUVqEAgimudQoendoYPIKKvipasEQha5lU0hhxeNXVXnBwHpgBzPXu6nApLn4cHrlGqCnYDtdcqiS3/7Od7/35FPkngzHHq88hOBUVEU3nAPz+0/fufPMs8/+gPj//waTOkZBqom6ohR0sbOmmPA/vHvvueef+dGZF15s/Xu7IYtD6t3hgeRTCr2eUn780rv37r388pMbP3nlleZOVRlG31yAx9PXJTYbTX760ts/e/W1l59avv3Kz3/R2KsOoXMuoEkFx8Ji4/U33rz77nOvvfbYo9fu3/9lfSyOx3OpYIDe3uXiV2+9efftO3eef2dp5sX7949PeYHFYZ9vCGD49ruvPvfe+++88OKH94/H5OH02/8L0OtvfXD33quvvvf+p5+9+OGvj8cc8uJ+orPBR2+9+cFvPv74k09/+8Jnv/v9ALvlGrzQ5/vrH9744O7Tdz755PM//unPxyBI4Z2230D76C9/vfu3v3/xxZef/0MfSJ9che/y3NITUPzqq39++a9/HwfBAxaK1//z9df//d834cMFxT14oVUPml8o275W7vHtsr+A1KTG0xvfLJcHytl93k5JpdON73V8Np4T8YaQMz97ZQrWfiFlfrxUdecCLqZy+08bLT/n8cylJdjU54uN83LzecfWvCQdctHQ0gwjywzDmKVLlDkmY24wHCub+6X6fusn63g7o7j/FzjRUwduqHg8Ul2k6Jl3nETJ4znkq5PKsBlRVFg5jvueYVkujTdElstJkpFlOXNoQThrGEacYxxvx4vifmNMm/d4GF3nQFEkDJEoidal2trDgNS/lR4wivkUJ5sX0vEFtDSb4cxPkyLLmnOZ4hgcRyLD4PsILBdHEn4f1VQVeiSouVzG0JCgKBreY2TjZigY2Vy8gAdKK8RzWTO0JdilCOa0mTeMezx5+DElpYtF/Pqn5vGfBXm+aAU83p8VkJiBdnABXi3CERHpSr8fbPgcTEvzK6XBMFqKzRGGcbZuyCpQagxW1mHWOR4JDGxBhLMcI2eQBFEqyLDN4AZIlZk0K+dALMcw0CCvQdfNsJdQsT5t2pRnCutO4YCFOzKeIkJZ8/cc3FE3A3lOVM2/RZSyWoqi3veHUwUyjGFTGXNocmwaKQwrNA2FNMeYQctw+AM7k4bpU1mIY4GFxFWYvKBJYCLBOTC/Kcng2DgSi6zBC3lZgRHjRF7MiojnYIQEFeyhyljDCdEqFrCEkMIKMhhCzqmaOA+Ty8MBQ5r36Dw0yRm8dSR9sHf9Agsjz0Ie4iCENBNZHJCQh+lUKsVwspl4uPBARWJShmnIW4YZllMMPMWWIS5WWYiADBMXBE1h0khnuIzZQAN9A+cqP+eZsgzxZEL3DXM646ZhHnwlMeuZ0qwE1bRGHhoeT1E1DrqeaJKuxCHCJKSwnGhNJDbkcPFMq7xlyKqiKOicrBKGApRamH+xYWjgk+MQ+Bw+wMialscN8nhYZIgUfDGYOq0xhwLkIfjzsifFQ5RqxUaZFeONVthQMZsAU7kDCVoDo+D+cVw6o6p5ThbqtbS5MkOlMecyzrFCyxAqTC7PsXmNNMzxkMlQdw0JShBUmjz4irjSpNI4IPL16g89n0N1wyIkomwazhdUVdEVIQf6pCFUtuL81MEWDiNvVj+VZaBW4FCE2sCqzUqDmoa4lmopMFTwHGvmAgo913SGEW1ziLIM/gTP42Iq4iUbchDBUxOkJoQwxJsZgDCFGVxp8DhBkoGhjDgoPkBKwAdwqhR4bIg7KMH50pQn3b8gVAUmryopCDakgpqu64U0x/Edhlwqk81C3YmjAkSsATVW53NFVZKyUHhsc4gkmVEFMVfMI7UYN0QV5lCS07qop3EgwCR6ijjoijwW8egGBKfG4zwEe1aCn3OaBiGp6nOeFNafjyPVM6cYOTwS/SPlZTNncpoGWWcGf0YuSqLMZNsGArdicryZfXKelQsQ2pCqMichQ5YFQcYLRUpO8bCewGMSXi30NG4AXkLK3IjjWpOycg3XaFgL5vC2gvjGauGxVgvD3JI1syJ5eH3OOucAgrjQKJmMAlGg6br1gCEUdKn5w4LXTSTR1FVhldd16Iegqyr+WyvovLVHMk+T1ExGMh8hDFUt4JN4SVEVycp5KcXInFkY4UqayuICDRGKu2/AM6RqDrOYhcJuXkKJq/jPPBeXjseXKUf47JT1qPONRZg6WI4dH/h46hh8lqFQKBQKhUKhUCgUCoVCoVAoFAqFQqFQKBQKhUKhUCgUCoVCoVAoFAqF4P9jkttgyHHehwAAAABJRU5ErkJggg==;imageBorder=#007FE0;" vertex="1" parent="1">
          <mxGeometry x="719.32" y="20" width="130" height="130" as="geometry" />
        </mxCell>
        <mxCell id="Gutqsm9ajWu_Jxu1otiX-16" value="&lt;span style=&quot;font-size: 16px ; font-weight: 700 ; background-color: rgb(255 , 255 , 255)&quot;&gt;מידע אנאליטי לתחקור עצמי&amp;nbsp;&lt;/span&gt;" style="text;html=1;strokeColor=none;fillColor=none;align=center;verticalAlign=middle;whiteSpace=wrap;rounded=0;fontColor=#007FE0;rotation=-90;" vertex="1" parent="1">
          <mxGeometry x="430" y="183" width="320" height="20" as="geometry" />
        </mxCell>
        <mxCell id="Gutqsm9ajWu_Jxu1otiX-17" value="&lt;b style=&quot;color: rgb(102 , 0 , 0) ; font-size: 16px ; background-color: rgb(255 , 255 , 255)&quot;&gt;טעינה יומית של מידע נדרש&lt;/b&gt;" style="text;html=1;strokeColor=none;fillColor=none;align=center;verticalAlign=middle;whiteSpace=wrap;rounded=0;fontColor=#007FE0;rotation=-90;" vertex="1" parent="1">
          <mxGeometry x="380" y="80" width="210" height="20" as="geometry" />
        </mxCell>
        <mxCell id="Gutqsm9ajWu_Jxu1otiX-18" value="&lt;span style=&quot;color: rgb(102 , 0 , 0) ; font-size: 16px&quot;&gt;&lt;b&gt;DWH&amp;nbsp;&lt;/b&gt;&lt;/span&gt;&lt;font color=&quot;#660000&quot; style=&quot;font-size: 11px&quot;&gt;&lt;span style=&quot;font-size: 16px&quot;&gt;&lt;b&gt;שכפול שבועי של&lt;/b&gt;&lt;/span&gt;&lt;/font&gt;" style="text;html=1;strokeColor=none;fillColor=none;align=center;verticalAlign=middle;whiteSpace=wrap;rounded=0;fontColor=#007FE0;rotation=-90;" vertex="1" parent="1">
          <mxGeometry x="293" y="70" width="210" height="20" as="geometry" />
        </mxCell>
        <mxCell id="Gutqsm9ajWu_Jxu1otiX-22" value="" style="edgeStyle=elbowEdgeStyle;elbow=horizontal;endArrow=classic;html=1;fontColor=#007FE0;entryX=0;entryY=0.25;entryDx=0;entryDy=0;exitX=1;exitY=0;exitDx=0;exitDy=0;strokeColor=#660000;" edge="1" parent="1" source="r4Pji1q6BE0blm9gypJN-33" target="Gutqsm9ajWu_Jxu1otiX-10">
          <mxGeometry width="50" height="50" relative="1" as="geometry">
            <mxPoint x="390" y="220" as="sourcePoint" />
            <mxPoint x="440" y="170" as="targetPoint" />
            <Array as="points">
              <mxPoint x="390" y="-62" />
            </Array>
          </mxGeometry>
        </mxCell>
        <mxCell id="Gutqsm9ajWu_Jxu1otiX-27" value="" style="edgeStyle=elbowEdgeStyle;elbow=horizontal;endArrow=classic;html=1;fontColor=#007FE0;entryX=0.008;entryY=0.425;entryDx=0;entryDy=0;entryPerimeter=0;strokeColor=#007FE0;" edge="1" parent="1" target="Gutqsm9ajWu_Jxu1otiX-11">
          <mxGeometry width="50" height="50" relative="1" as="geometry">
            <mxPoint x="470" y="310" as="sourcePoint" />
            <mxPoint x="520" y="260" as="targetPoint" />
          </mxGeometry>
        </mxCell>
      </root>
    </mxGraphModel>
  </diagram>
</mxfile>
